<svg xmlns="http://www.w3.org/2000/svg" width="1800" height="1000" viewBox="0 0 1800 1000">
  <rect width="100%" height="100%" fill="#ffffff" />
  <text x="60" y="60" font-size="30" font-weight="bold" font-family="Arial, sans-serif">Overall 200 AgentClinic Cases: Same Diagnoses in Single-Diagnosis Cohort (Top 15 + Other)</text>
  <text x="60" y="95" font-size="18" fill="#444444" font-family="Arial, sans-serif">Pie chart uses top 15 diagnoses plus Other for readability.</text>
  <path d="M 360,500 L 360.000,260.000 A 240,240 0 0,1 599.457,483.865 Z" fill="#4E79A7" stroke="#ffffff" stroke-width="1.5" /><path d="M 360,500 L 599.457,483.865 A 240,240 0 0,1 487.075,703.597 Z" fill="#F28E2B" stroke="#ffffff" stroke-width="1.5" /><path d="M 360,500 L 487.075,703.597 A 240,240 0 0,1 341.503,739.286 Z" fill="#E15759" stroke="#ffffff" stroke-width="1.5" /><path d="M 360,500 L 341.503,739.286 A 240,240 0 0,1 266.121,720.877 Z" fill="#76B7B2" stroke="#ffffff" stroke-width="1.5" /><path d="M 360,500 L 266.121,720.877 A 240,240 0 0,1 217.958,693.453 Z" fill="#59A14F" stroke="#ffffff" stroke-width="1.5" /><path d="M 360,500 L 217.958,693.453 A 240,240 0 0,1 186.011,665.312 Z" fill="#EDC948" stroke="#ffffff" stroke-width="1.5" /><path d="M 360,500 L 186.011,665.312 A 240,240 0 0,1 160.253,633.046 Z" fill="#B07AA1" stroke="#ffffff" stroke-width="1.5" /><path d="M 360,500 L 160.253,633.046 A 240,240 0 0,1 144.022,604.658 Z" fill="#FF9DA7" stroke="#ffffff" stroke-width="1.5" /><path d="M 360,500 L 144.022,604.658 A 240,240 0 0,1 133.882,580.442 Z" fill="#9C755F" stroke="#ffffff" stroke-width="1.5" /><path d="M 360,500 L 133.882,580.442 A 240,240 0 0,1 127.057,557.773 Z" fill="#BAB0AC" stroke="#ffffff" stroke-width="1.5" /><path d="M 360,500 L 127.057,557.773 A 240,240 0 0,1 122.499,534.543 Z" fill="#86BCB6" stroke="#ffffff" stroke-width="1.5" /><path d="M 360,500 L 122.499,534.543 A 240,240 0 0,1 120.408,513.987 Z" fill="#D37295" stroke="#ffffff" stroke-width="1.5" /><path d="M 360,500 L 120.408,513.987 A 240,240 0 0,1 120.035,495.909 Z" fill="#FABFD2" stroke="#ffffff" stroke-width="1.5" /><path d="M 360,500 L 120.035,495.909 A 240,240 0 0,1 120.871,479.571 Z" fill="#8CD17D" stroke="#ffffff" stroke-width="1.5" /><path d="M 360,500 L 120.871,479.571 A 240,240 0 0,1 122.499,465.457 Z" fill="#B6992D" stroke="#ffffff" stroke-width="1.5" /><path d="M 360,500 L 122.499,465.457 A 240,240 0 0,1 360.000,260.000 Z" fill="#499894" stroke="#ffffff" stroke-width="1.5" />
  <text x="700" y="100" font-size="24" font-weight="bold" font-family="Arial, sans-serif">Diagnosis Legend</text>
  <rect x="700" y="136" width="18" height="18" fill="#4E79A7" /><text x="730" y="150" font-size="18" font-family="Arial, sans-serif">Alcohol abuse, unspecified | 838 patients | 15.20% of full 5,513-patient cohort | 23.93% of matched subset</text><rect x="700" y="180" width="18" height="18" fill="#F28E2B" /><text x="730" y="194" font-size="18" font-family="Arial, sans-serif">Chest pain, unspecified | 602 patients | 10.92% of full 5,513-patient cohort | 17.19% of matched subset</text><rect x="700" y="224" width="18" height="18" fill="#E15759" /><text x="730" y="238" font-size="18" font-family="Arial, sans-serif">Acute appendicitis without mention of peritonitis | 354 patients | 6.42% of full 5,513-patient cohort | 10.11% of matched subset</text><rect x="700" y="268" width="18" height="18" fill="#76B7B2" /><text x="730" y="282" font-size="18" font-family="Arial, sans-serif">Alcohol abuse with intoxication, unspecified | 181 patients | 3.28% of full 5,513-patient cohort | 5.17% of matched subset</text><rect x="700" y="312" width="18" height="18" fill="#59A14F" /><text x="730" y="326" font-size="18" font-family="Arial, sans-serif">Other chest pain | 129 patients | 2.34% of full 5,513-patient cohort | 3.68% of matched subset</text><rect x="700" y="356" width="18" height="18" fill="#EDC948" /><text x="730" y="370" font-size="18" font-family="Arial, sans-serif">Peritonsillar abscess | 99 patients | 1.80% of full 5,513-patient cohort | 2.83% of matched subset</text><rect x="700" y="400" width="18" height="18" fill="#B07AA1" /><text x="730" y="414" font-size="18" font-family="Arial, sans-serif">Unspecified acute appendicitis | 96 patients | 1.74% of full 5,513-patient cohort | 2.74% of matched subset</text><rect x="700" y="444" width="18" height="18" fill="#FF9DA7" /><text x="730" y="458" font-size="18" font-family="Arial, sans-serif">Cellulitis and abscess of leg, except foot | 76 patients | 1.38% of full 5,513-patient cohort | 2.17% of matched subset</text><rect x="700" y="488" width="18" height="18" fill="#9C755F" /><text x="730" y="502" font-size="18" font-family="Arial, sans-serif">Depressive disorder, not elsewhere classified | 61 patients | 1.11% of full 5,513-patient cohort | 1.74% of matched subset</text><rect x="700" y="532" width="18" height="18" fill="#BAB0AC" /><text x="730" y="546" font-size="18" font-family="Arial, sans-serif">Displacement of lumbar intervertebral disc without myelopathy | 55 patients | 1.00% of full 5,513-patient cohort | 1.57% of matched subset</text><rect x="700" y="576" width="18" height="18" fill="#86BCB6" /><text x="730" y="590" font-size="18" font-family="Arial, sans-serif">Unspecified psychosis | 55 patients | 1.00% of full 5,513-patient cohort | 1.57% of matched subset</text><rect x="700" y="620" width="18" height="18" fill="#D37295" /><text x="730" y="634" font-size="18" font-family="Arial, sans-serif">Syncope and collapse | 48 patients | 0.87% of full 5,513-patient cohort | 1.37% of matched subset</text><rect x="700" y="664" width="18" height="18" fill="#FABFD2" /><text x="730" y="678" font-size="18" font-family="Arial, sans-serif">Major depressive disorder, single episode, unspecified | 42 patients | 0.76% of full 5,513-patient cohort | 1.20% of matched subset</text><rect x="700" y="708" width="18" height="18" fill="#8CD17D" /><text x="730" y="722" font-size="18" font-family="Arial, sans-serif">Cellulitis and abscess of upper arm and forearm | 38 patients | 0.69% of full 5,513-patient cohort | 1.09% of matched subset</text><rect x="700" y="752" width="18" height="18" fill="#B6992D" /><text x="730" y="766" font-size="18" font-family="Arial, sans-serif">Acute pharyngitis | 33 patients | 0.60% of full 5,513-patient cohort | 0.94% of matched subset</text><rect x="700" y="796" width="18" height="18" fill="#499894" /><text x="730" y="810" font-size="18" font-family="Arial, sans-serif">Other (78 diagnoses) | 795 patients | 0.00% of full 5,513-patient cohort | 0.00% of matched subset</text>
</svg>
