<svg xmlns="http://www.w3.org/2000/svg" width="1800" height="1000" viewBox="0 0 1800 1000">
  <rect width="100%" height="100%" fill="#ffffff" />
  <text x="60" y="60" font-size="30" font-weight="bold" font-family="Arial, sans-serif">Correct Predictions: Same Diagnoses in Single-Diagnosis Cohort (Top 15 + Other)</text>
  <text x="60" y="95" font-size="18" fill="#444444" font-family="Arial, sans-serif">Pie chart uses top 15 diagnoses plus Other for readability.</text>
  <path d="M 360,500 L 360.000,260.000 A 240,240 0 0,1 587.895,575.260 Z" fill="#4E79A7" stroke="#ffffff" stroke-width="1.5" /><path d="M 360,500 L 587.895,575.260 A 240,240 0 0,1 518.854,679.904 Z" fill="#F28E2B" stroke="#ffffff" stroke-width="1.5" /><path d="M 360,500 L 518.854,679.904 A 240,240 0 0,1 410.233,734.684 Z" fill="#E15759" stroke="#ffffff" stroke-width="1.5" /><path d="M 360,500 L 410.233,734.684 A 240,240 0 0,1 313.532,735.458 Z" fill="#76B7B2" stroke="#ffffff" stroke-width="1.5" /><path d="M 360,500 L 313.532,735.458 A 240,240 0 0,1 240.648,708.219 Z" fill="#59A14F" stroke="#ffffff" stroke-width="1.5" /><path d="M 360,500 L 240.648,708.219 A 240,240 0 0,1 191.773,671.171 Z" fill="#EDC948" stroke="#ffffff" stroke-width="1.5" /><path d="M 360,500 L 191.773,671.171 A 240,240 0 0,1 157.926,629.484 Z" fill="#B07AA1" stroke="#ffffff" stroke-width="1.5" /><path d="M 360,500 L 157.926,629.484 A 240,240 0 0,1 138.361,592.066 Z" fill="#FF9DA7" stroke="#ffffff" stroke-width="1.5" /><path d="M 360,500 L 138.361,592.066 A 240,240 0 0,1 126.223,554.297 Z" fill="#9C755F" stroke="#ffffff" stroke-width="1.5" /><path d="M 360,500 L 126.223,554.297 A 240,240 0 0,1 121.077,522.707 Z" fill="#BAB0AC" stroke="#ffffff" stroke-width="1.5" /><path d="M 360,500 L 121.077,522.707 A 240,240 0 0,1 120.134,491.994 Z" fill="#86BCB6" stroke="#ffffff" stroke-width="1.5" /><path d="M 360,500 L 120.134,491.994 A 240,240 0 0,1 123.122,461.412 Z" fill="#D37295" stroke="#ffffff" stroke-width="1.5" /><path d="M 360,500 L 123.122,461.412 A 240,240 0 0,1 129.276,433.922 Z" fill="#FABFD2" stroke="#ffffff" stroke-width="1.5" /><path d="M 360,500 L 129.276,433.922 A 240,240 0 0,1 136.680,412.091 Z" fill="#8CD17D" stroke="#ffffff" stroke-width="1.5" /><path d="M 360,500 L 136.680,412.091 A 240,240 0 0,1 146.144,391.071 Z" fill="#B6992D" stroke="#ffffff" stroke-width="1.5" /><path d="M 360,500 L 146.144,391.071 A 240,240 0 0,1 360.000,260.000 Z" fill="#499894" stroke="#ffffff" stroke-width="1.5" />
  <text x="700" y="100" font-size="24" font-weight="bold" font-family="Arial, sans-serif">Diagnosis Legend</text>
  <rect x="700" y="136" width="18" height="18" fill="#4E79A7" /><text x="730" y="150" font-size="18" font-family="Arial, sans-serif">Acute appendicitis without mention of peritonitis | 354 patients | 6.42% of full cohort | 30.08% of matched subset</text><rect x="700" y="180" width="18" height="18" fill="#F28E2B" /><text x="730" y="194" font-size="18" font-family="Arial, sans-serif">Peritonsillar abscess | 99 patients | 1.80% of full cohort | 8.41% of matched subset</text><rect x="700" y="224" width="18" height="18" fill="#E15759" /><text x="730" y="238" font-size="18" font-family="Arial, sans-serif">Unspecified acute appendicitis | 96 patients | 1.74% of full cohort | 8.16% of matched subset</text><rect x="700" y="268" width="18" height="18" fill="#76B7B2" /><text x="730" y="282" font-size="18" font-family="Arial, sans-serif">Cellulitis and abscess of leg, except foot | 76 patients | 1.38% of full cohort | 6.46% of matched subset</text><rect x="700" y="312" width="18" height="18" fill="#59A14F" /><text x="730" y="326" font-size="18" font-family="Arial, sans-serif">Depressive disorder, not elsewhere classified | 61 patients | 1.11% of full cohort | 5.18% of matched subset</text><rect x="700" y="356" width="18" height="18" fill="#EDC948" /><text x="730" y="370" font-size="18" font-family="Arial, sans-serif">Syncope and collapse | 48 patients | 0.87% of full cohort | 4.08% of matched subset</text><rect x="700" y="400" width="18" height="18" fill="#B07AA1" /><text x="730" y="414" font-size="18" font-family="Arial, sans-serif">Major depressive disorder, single episode, unspecified | 42 patients | 0.76% of full cohort | 3.57% of matched subset</text><rect x="700" y="444" width="18" height="18" fill="#FF9DA7" /><text x="730" y="458" font-size="18" font-family="Arial, sans-serif">Acute pharyngitis | 33 patients | 0.60% of full cohort | 2.80% of matched subset</text><rect x="700" y="488" width="18" height="18" fill="#9C755F" /><text x="730" y="502" font-size="18" font-family="Arial, sans-serif">Malignant neoplasm of prostate | 31 patients | 0.56% of full cohort | 2.63% of matched subset</text><rect x="700" y="532" width="18" height="18" fill="#BAB0AC" /><text x="730" y="546" font-size="18" font-family="Arial, sans-serif">Diverticulitis of colon (without mention of hemorrhage) | 25 patients | 0.45% of full cohort | 2.12% of matched subset</text><rect x="700" y="576" width="18" height="18" fill="#86BCB6" /><text x="730" y="590" font-size="18" font-family="Arial, sans-serif">Calculus of kidney | 24 patients | 0.44% of full cohort | 2.04% of matched subset</text><rect x="700" y="620" width="18" height="18" fill="#D37295" /><text x="730" y="634" font-size="18" font-family="Arial, sans-serif">Cellulitis and abscess of face | 24 patients | 0.44% of full cohort | 2.04% of matched subset</text><rect x="700" y="664" width="18" height="18" fill="#FABFD2" /><text x="730" y="678" font-size="18" font-family="Arial, sans-serif">Calculus of gallbladder with acute cholecystitis, without mention of obstruction | 22 patients | 0.40% of full cohort | 1.87% of matched subset</text><rect x="700" y="708" width="18" height="18" fill="#8CD17D" /><text x="730" y="722" font-size="18" font-family="Arial, sans-serif">Cerebral aneurysm, nonruptured | 18 patients | 0.33% of full cohort | 1.53% of matched subset</text><rect x="700" y="752" width="18" height="18" fill="#B6992D" /><text x="730" y="766" font-size="18" font-family="Arial, sans-serif">Pneumonia, organism unspecified | 18 patients | 0.33% of full cohort | 1.53% of matched subset</text><rect x="700" y="796" width="18" height="18" fill="#499894" /><text x="730" y="810" font-size="18" font-family="Arial, sans-serif">Other (34 diagnoses) | 206 patients | 0.00% of full cohort | 0.00% of matched subset</text>
</svg>
